inDegrees=no
DataType=double
version=3
OpenSimVersion=4.4-2022-10-11-798caa840
endheader
time	elv_angle	shoulder_elv	shoulder_rot	elbow_flexion	pro_sup	deviation	flexion
2.4020851434	0.4637425542	1.4625471830	0.4363323152	1.5446828604	0.0000000000	0.0000000000	0.0000000000
2.4062554301	0.4637425542	1.4625471830	0.4363323152	1.5446828604	0.0000000000	0.0000000000	0.0000000000
2.4104257168	0.4637425542	1.4625471830	0.4363323152	1.5446828604	0.0000000000	0.0000000000	0.0000000000
2.4145960035	0.4637425542	1.4625471830	0.4363323152	1.5446828604	0.0000000000	0.0000000000	0.0000000000
2.4187662902	0.4637425542	1.4625471830	0.4363323152	1.5446828604	0.0000000000	0.0000000000	0.0000000000
2.4229365769	0.4637425542	1.4625471830	0.4363323152	1.5446828604	0.0000000000	0.0000000000	0.0000000000
2.4271068636	0.4637425542	1.4625471830	0.4363323152	1.5446828604	0.0000000000	0.0000000000	0.0000000000
2.4312771503	0.4637425542	1.4625471830	0.4363323152	1.5446828604	0.0000000000	0.0000000000	0.0000000000
2.4354474370	0.4637425542	1.4625471830	0.4363323152	1.5446828604	0.0000000000	0.0000000000	0.0000000000
2.4396177237	0.4637425542	1.4625471830	0.4363323152	1.5446828604	0.0000000000	0.0000000000	0.0000000000
2.4437880104	0.4637425542	1.4625471830	0.4363323152	1.5446828604	0.0000000000	0.0000000000	0.0000000000
2.4479582971	0.4637425542	1.4625471830	0.4363323152	1.5446828604	0.0000000000	0.0000000000	0.0000000000
2.4521285838	0.4637425542	1.4625471830	0.4363323152	1.5446828604	0.0000000000	0.0000000000	0.0000000000
2.4562988705	0.4637425542	1.4625471830	0.4363323152	1.5446828604	0.0000000000	0.0000000000	0.0000000000
2.4604691573	0.4637425542	1.4625471830	0.4363323152	1.5446828604	0.0000000000	0.0000000000	0.0000000000
2.4646394440	0.4637425542	1.4625471830	0.4363323152	1.5446828604	0.0000000000	0.0000000000	0.0000000000
2.4688097307	0.4637425542	1.4625471830	0.4363323152	1.5446828604	0.0000000000	0.0000000000	0.0000000000
2.4729800174	0.4637425542	1.4625471830	0.4363323152	1.5446828604	0.0000000000	0.0000000000	0.0000000000
2.4771503041	0.4637425542	1.4625471830	0.4363323152	1.5446828604	0.0000000000	0.0000000000	0.0000000000
2.4813205908	0.4637425542	1.4625471830	0.4363323152	1.5446828604	0.0000000000	0.0000000000	0.0000000000
2.4854908775	0.4637425542	1.4625471830	0.4363323152	1.5446828604	0.0000000000	0.0000000000	0.0000000000
2.4896611642	0.4637425542	1.4625471830	0.4363323152	1.5446828604	0.0000000000	0.0000000000	0.0000000000
2.4938314509	0.4637425542	1.4625471830	0.4363323152	1.5446828604	0.0000000000	0.0000000000	0.0000000000
2.4980017376	0.4637425542	1.4625471830	0.4363323152	1.5446828604	0.0000000000	0.0000000000	0.0000000000
2.5021720243	0.4637425542	1.4625471830	0.4363323152	1.5446828604	0.0000000000	0.0000000000	0.0000000000
2.5063423110	0.4637425542	1.4625471830	0.4363323152	1.5446828604	0.0000000000	0.0000000000	0.0000000000
2.5105125977	0.4637425542	1.4625471830	0.4363323152	1.5446828604	0.0000000000	0.0000000000	0.0000000000
2.5146828844	0.4637425542	1.4625471830	0.4363323152	1.5446828604	0.0000000000	0.0000000000	0.0000000000
2.5188531712	0.4637425542	1.4625471830	0.4363323152	1.5446828604	0.0000000000	0.0000000000	0.0000000000
2.5230234579	0.4637425542	1.4625471830	0.4363323152	1.5446828604	0.0000000000	0.0000000000	0.0000000000
2.5271937446	0.4637425542	1.4625471830	0.4363323152	1.5446828604	0.0000000000	0.0000000000	0.0000000000
2.5313640313	0.4637425542	1.4625471830	0.4363323152	1.5446828604	0.0000000000	0.0000000000	0.0000000000
2.5355343180	0.4637425542	1.4625471830	0.4363323152	1.5446828604	0.0000000000	0.0000000000	0.0000000000
2.5397046047	0.4637425542	1.4625471830	0.4363323152	1.5446828604	0.0000000000	0.0000000000	0.0000000000
2.5438748914	0.4637425542	1.4625471830	0.4363323152	1.5446828604	0.0000000000	0.0000000000	0.0000000000
2.5480451781	0.4637425542	1.4625471830	0.4363323152	1.5446828604	0.0000000000	0.0000000000	0.0000000000
2.5522154648	0.4637425542	1.4625471830	0.4363323152	1.5446828604	0.0000000000	0.0000000000	0.0000000000
2.5563857515	0.4637425542	1.4625471830	0.4363323152	1.5446828604	0.0000000000	0.0000000000	0.0000000000
2.5605560382	0.4637425542	1.4625471830	0.4363323152	1.5446828604	0.0000000000	0.0000000000	0.0000000000
2.5647263249	0.4637425542	1.4625471830	0.4363323152	1.5446828604	0.0000000000	0.0000000000	0.0000000000
2.5688966116	0.4637425542	1.4625471830	0.4363323152	1.5446828604	0.0000000000	0.0000000000	0.0000000000
2.5730668983	0.4637425542	1.4625471830	0.4363323152	1.5446828604	0.0000000000	0.0000000000	0.0000000000
2.5772371851	0.4637425542	1.4625471830	0.4363323152	1.5446828604	0.0000000000	0.0000000000	0.0000000000
2.5814074718	0.4637425542	1.4625471830	0.4363323152	1.5446828604	0.0000000000	0.0000000000	0.0000000000
2.5855777585	0.4637425542	1.4625471830	0.4363323152	1.5446828604	0.0000000000	0.0000000000	0.0000000000
2.5897480452	0.4637425542	1.4625471830	0.4363323152	1.5446828604	0.0000000000	0.0000000000	0.0000000000
2.5939183319	0.4637425542	1.4625471830	0.4363323152	1.5446828604	0.0000000000	0.0000000000	0.0000000000
2.5980886186	0.4637425542	1.4625471830	0.4363323152	1.5446828604	0.0000000000	0.0000000000	0.0000000000
2.6022589053	0.4637425542	1.4625471830	0.4363323152	1.5446828604	0.0000000000	0.0000000000	0.0000000000
2.6064291920	0.4637425542	1.4625471830	0.4363323152	1.5446828604	0.0000000000	0.0000000000	0.0000000000
2.6105994787	0.4637425542	1.4625471830	0.4363323152	1.5446828604	0.0000000000	0.0000000000	0.0000000000
2.6147697654	0.4637425542	1.4625471830	0.4363323152	1.5446828604	0.0000000000	0.0000000000	0.0000000000
2.6189400521	0.4637425542	1.4625471830	0.4363323152	1.5446828604	0.0000000000	0.0000000000	0.0000000000
2.6231103388	0.4637425542	1.4625471830	0.4363323152	1.5446828604	0.0000000000	0.0000000000	0.0000000000
2.6272806255	0.4637425542	1.4625471830	0.4363323152	1.5446828604	0.0000000000	0.0000000000	0.0000000000
2.6314509123	0.4637425542	1.4625471830	0.4363323152	1.5446828604	0.0000000000	0.0000000000	0.0000000000
2.6356211990	0.4637425542	1.4625471830	0.4363323152	1.5446828604	0.0000000000	0.0000000000	0.0000000000
2.6397914857	0.4637425542	1.4625471830	0.4363323152	1.5446828604	0.0000000000	0.0000000000	0.0000000000
2.6439617724	0.4637425542	1.4625471830	0.4363323152	1.5446828604	0.0000000000	0.0000000000	0.0000000000
2.6481320591	0.4637425542	1.4625471830	0.4363323152	1.5446828604	0.0000000000	0.0000000000	0.0000000000
2.6523023458	0.4637425542	1.4625471830	0.4363323152	1.5446828604	0.0000000000	0.0000000000	0.0000000000
2.6564726325	0.4637439847	1.4625461102	0.4363323152	1.5446834564	0.0000000000	0.0000000000	0.0000000000
2.6606429192	0.4637536705	1.4625382423	0.4363323152	1.5446878672	0.0000000000	0.0000000000	0.0000000000
2.6648132059	0.4637795985	1.4625172615	0.4363323152	1.5446997881	0.0000000000	0.0000000000	0.0000000000
2.6689834926	0.4638292491	1.4624772072	0.4363323152	1.5447225571	0.0000000000	0.0000000000	0.0000000000
2.6731537793	0.4639096558	1.4624122381	0.4363323152	1.5447595119	0.0000000000	0.0000000000	0.0000000000
2.6773240660	0.4640276134	1.4623168707	0.4363323152	1.5448133945	0.0000000000	0.0000000000	0.0000000000
2.6814943527	0.4641894400	1.4621860981	0.4363323152	1.5448873043	0.0000000000	0.0000000000	0.0000000000
2.6856646394	0.4644011259	1.4620150328	0.4363323152	1.5449837446	0.0000000000	0.0000000000	0.0000000000
2.6898349262	0.4646682143	1.4617990255	0.4363323152	1.5451053381	0.0000000000	0.0000000000	0.0000000000
2.6940052129	0.4649959803	1.4615340233	0.4363323152	1.5452542305	0.0000000000	0.0000000000	0.0000000000
2.6981754996	0.4653894007	1.4612158537	0.4363323152	1.5454320908	0.0000000000	0.0000000000	0.0000000000
2.7023457863	0.4658531547	1.4608410597	0.4363323152	1.5456411839	0.0000000000	0.0000000000	0.0000000000
2.7065160730	0.4663914442	1.4604057074	0.4363323152	1.5458828211	0.0000000000	0.0000000000	0.0000000000
2.7106863597	0.4670085311	1.4599066973	0.4363323152	1.5461581945	0.0000000000	0.0000000000	0.0000000000
2.7148566464	0.4677080214	1.4593410492	0.4363323152	1.5464687347	0.0000000000	0.0000000000	0.0000000000
2.7190269331	0.4684936106	1.4587055445	0.4363323152	1.5468150377	0.0000000000	0.0000000000	0.0000000000
2.7231972198	0.4693684280	1.4579980373	0.4363323152	1.5471979380	0.0000000000	0.0000000000	0.0000000000
2.7273675065	0.4703355432	1.4572155476	0.4363323152	1.5476176739	0.0000000000	0.0000000000	0.0000000000
2.7315377932	0.4713976979	1.4563561678	0.4363323152	1.5480744839	0.0000000000	0.0000000000	0.0000000000
2.7357080799	0.4725575447	1.4554175138	0.4363323152	1.5485684872	0.0000000000	0.0000000000	0.0000000000
2.7398783666	0.4738175273	1.4543977976	0.4363323152	1.5490990877	0.0000000000	0.0000000000	0.0000000000
2.7440486533	0.4751796722	1.4532952309	0.4363323152	1.5496660471	0.0000000000	0.0000000000	0.0000000000
2.7482189401	0.4766459763	1.4521083832	0.4363323152	1.5502686501	0.0000000000	0.0000000000	0.0000000000
2.7523892268	0.4782181978	1.4508355856	0.4363323152	1.5509059429	0.0000000000	0.0000000000	0.0000000000
2.7565595135	0.4798980355	1.4494755268	0.4363323152	1.5515767336	0.0000000000	0.0000000000	0.0000000000
2.7607298002	0.4816867411	1.4480272532	0.4363323152	1.5522797108	0.0000000000	0.0000000000	0.0000000000
2.7649000869	0.4835856855	1.4464896917	0.4363323152	1.5530133247	0.0000000000	0.0000000000	0.0000000000
2.7690703736	0.4855957031	1.4448621273	0.4363323152	1.5537762642	0.0000000000	0.0000000000	0.0000000000
2.7732406603	0.4877177775	1.4431438446	0.4363323152	1.5545663834	0.0000000000	0.0000000000	0.0000000000
2.7774109470	0.4899526238	1.4413343668	0.4363323152	1.5553814173	0.0000000000	0.0000000000	0.0000000000
2.7815812337	0.4923006892	1.4394333363	0.4363323152	1.5562198162	0.0000000000	0.0000000000	0.0000000000
2.7857515204	0.4947624505	1.4374406338	0.4363323152	1.5570787191	0.0000000000	0.0000000000	0.0000000000
2.7899218071	0.4973379672	1.4353563786	0.4363323152	1.5579560995	0.0000000000	0.0000000000	0.0000000000
2.7940920938	0.5000271797	1.4331805706	0.4363323152	1.5588494539	0.0000000000	0.0000000000	0.0000000000
2.7982623805	0.5028301477	1.4309133291	0.4363323152	1.5597559214	0.0000000000	0.0000000000	0.0000000000
2.8024326672	0.5057463646	1.4285557270	0.4363323152	1.5606731176	0.0000000000	0.0000000000	0.0000000000
2.8066029540	0.5087752938	1.4261080027	0.4363323152	1.5615980625	0.0000000000	0.0000000000	0.0000000000
2.8107732407	0.5119162798	1.4235712290	0.4363323152	1.5625280142	0.0000000000	0.0000000000	0.0000000000
2.8149435274	0.5151684284	1.4209462404	0.4363323152	1.5634601116	0.0000000000	0.0000000000	0.0000000000
2.8191138141	0.5185306668	1.4182344675	0.4363323152	1.5643917322	0.0000000000	0.0000000000	0.0000000000
2.8232841008	0.5220016837	1.4154373407	0.4363323152	1.5653197765	0.0000000000	0.0000000000	0.0000000000
2.8274543875	0.5255800486	1.4125565290	0.4363323152	1.5662415028	0.0000000000	0.0000000000	0.0000000000
2.8316246742	0.5292641521	1.4095935822	0.4363323152	1.5671540499	0.0000000000	0.0000000000	0.0000000000
2.8357949609	0.5330521464	1.4065507650	0.4363323152	1.5680545568	0.0000000000	0.0000000000	0.0000000000
